<?xml version="1.0" standalone="no"?>
<!DOCTYPE svg PUBLIC "-//W3C//DTD SVG 20010904//EN"
 "http://www.w3.org/TR/2001/REC-SVG-20010904/DTD/svg10.dtd">
<svg version="1.0" xmlns="http://www.w3.org/2000/svg"
 width="1024.000000pt" height="684.000000pt" viewBox="0 0 1024.000000 684.000000"
 preserveAspectRatio="xMidYMid meet">

<g transform="translate(0.000000,684.000000) scale(0.100000,-0.100000)"
fill="#000000" stroke="none">
<path d="M2104 6119 c-65 -8 -165 -61 -206 -108 -17 -19 -43 -60 -57 -91 l-26
-55 -3 -1587 -2 -1588 -100 0 c-62 0 -113 -5 -133 -14 -43 -17 -84 -67 -97
-116 -7 -26 -10 -322 -8 -907 3 -847 3 -869 23 -902 11 -19 33 -43 48 -55 28
-21 38 -21 501 -24 l472 -3 34 23 c19 13 43 39 54 58 20 34 21 54 26 503 3
257 8 467 13 467 4 0 392 0 862 0 l855 0 0 -25 c0 -21 -32 -210 -85 -510 -9
-49 -22 -125 -29 -167 -7 -43 -14 -80 -17 -82 -2 -3 -109 -7 -236 -9 -214 -5
-235 -7 -267 -26 -69 -43 -75 -140 -12 -198 l36 -33 1167 0 c1154 0 1168 0
1201 20 66 41 78 131 24 191 -35 39 -100 48 -348 49 l-181 0 -17 103 c-43 250
-61 353 -91 510 -22 115 -28 170 -21 173 6 2 355 3 776 2 l765 -3 5 -400 c5
-381 6 -402 26 -445 40 -85 79 -126 151 -162 67 -33 68 -33 235 -36 l168 -3 0
-160 0 -159 30 0 30 0 0 70 c0 67 1 71 26 80 42 16 54 -2 54 -81 l0 -69 30 0
30 0 0 90 c0 84 -1 90 -25 106 -24 16 -60 16 -98 -1 -16 -7 -18 -2 -15 56 l3
64 800 5 800 5 46 22 c62 30 122 93 156 161 l28 57 0 1385 0 1385 -26 55 c-37
80 -81 125 -157 162 l-67 33 -607 3 c-335 1 -609 4 -610 5 -1 1 -5 436 -8 967
l-5 965 -23 46 c-43 88 -150 174 -239 193 -42 9 -5593 14 -5659 5z m5691
-1199 l0 -975 -250 -1 c-234 -1 -254 -3 -310 -24 -79 -31 -153 -104 -186 -185
l-24 -60 2 -773 1 -772 -21 -5 c-12 -3 -1001 -4 -2197 -3 l-2175 3 -5 226 -5
226 -28 42 c-45 67 -63 71 -327 71 l-230 0 0 1598 c0 879 3 1602 7 1605 3 4
1298 6 2877 5 l2871 -3 0 -975z m1525 -2580 l0 -1410 -1050 0 -1050 0 0 1410
0 1410 1050 0 1050 0 0 -1410z m-6827 -162 c4 -182 7 -538 7 -790 l0 -458
-450 0 -450 0 0 783 c0 431 3 787 7 790 3 4 203 7 443 7 l437 0 6 -332z"/>
<path d="M2407 5603 c-4 -3 -7 -62 -7 -130 l0 -123 530 0 531 0 -3 128 -3 127
-521 3 c-286 1 -524 -1 -527 -5z"/>
<path d="M6330 5560 l0 -50 155 0 155 0 0 50 0 50 -155 0 -155 0 0 -50z"/>
<path d="M6712 5598 c-13 -13 -16 -47 -6 -72 5 -14 29 -16 161 -16 l154 0 -3
48 -3 47 -145 3 c-105 2 -149 -1 -158 -10z"/>
<path d="M7087 5603 c-4 -3 -7 -26 -7 -50 l0 -43 155 0 155 0 0 50 0 50 -148
0 c-82 0 -152 -3 -155 -7z"/>
<path d="M7864 3567 c-3 -8 -4 -49 -2 -93 l3 -79 370 0 370 0 3 93 3 92 -371
0 c-300 0 -372 -3 -376 -13z"/>
<path d="M7855 3270 c-3 -6 -3 -19 0 -30 6 -18 15 -20 116 -20 l109 0 0 30 0
30 -109 0 c-63 0 -112 -4 -116 -10z"/>
<path d="M8120 3250 l0 -30 115 0 115 0 0 30 0 30 -115 0 -115 0 0 -30z"/>
<path d="M8380 3250 l0 -30 115 0 115 0 0 30 0 30 -115 0 -115 0 0 -30z"/>
<path d="M1714 2397 c-3 -8 -4 -41 -2 -73 l3 -59 175 0 175 0 0 70 0 70 -173
3 c-140 2 -173 0 -178 -11z"/>
<path d="M2215 2400 c-14 -22 10 -30 86 -30 72 0 79 2 79 20 0 18 -7 20 -79
20 -44 0 -83 -4 -86 -10z"/>
<path d="M2217 2346 c-9 -23 2 -26 85 -26 70 0 79 2 76 18 -3 14 -16 17 -79
20 -59 2 -78 0 -82 -12z"/>
<path d="M2216 2292 c-14 -23 14 -33 85 -30 61 2 74 6 77 21 3 15 -6 17 -77
17 -44 0 -82 -4 -85 -8z"/>
<path d="M7340 505 l0 -155 29 0 c29 0 30 2 33 53 l3 52 51 6 c84 10 114 36
114 98 0 66 -62 99 -187 100 l-43 1 0 -155z m141 85 c25 -14 25 -56 -1 -70
-12 -6 -33 -10 -48 -8 -21 2 -28 9 -30 31 -2 16 -1 35 2 43 6 16 49 19 77 4z"/>
<path d="M8570 506 l0 -156 30 0 30 0 0 60 c0 81 22 81 72 0 34 -55 40 -60 73
-60 19 0 35 2 35 5 0 3 -16 30 -37 60 l-36 56 27 28 c23 24 27 36 24 71 -4 61
-31 78 -135 86 l-83 7 0 -157z m127 88 c12 -3 25 -15 29 -27 8 -27 -19 -47
-63 -47 -32 0 -33 1 -33 40 0 35 3 40 23 40 12 0 32 -3 44 -6z"/>
<path d="M9766 639 c-48 -38 -28 -120 34 -134 53 -12 108 41 96 91 -16 61 -80
82 -130 43z m102 -17 c30 -38 2 -102 -45 -102 -36 0 -60 16 -67 45 -17 65 70
110 112 57z"/>
<path d="M9790 581 c0 -23 5 -41 10 -41 6 0 10 8 10 18 1 16 1 16 11 0 16 -29
26 -21 25 20 -1 33 -4 37 -28 40 -27 3 -28 1 -28 -37z m35 20 c3 -5 1 -12 -5
-16 -5 -3 -10 1 -10 9 0 18 6 21 15 7z"/>
<path d="M8163 613 c-7 -2 -13 -16 -13 -29 0 -17 -6 -24 -20 -24 -16 0 -20 -7
-20 -30 0 -23 4 -30 20 -30 18 0 20 -7 20 -56 0 -66 11 -90 46 -98 38 -10 64
2 64 29 0 17 -6 25 -22 27 -20 3 -23 10 -26 51 -3 45 -2 47 22 47 22 0 26 4
26 30 0 25 -4 30 -25 30 -21 0 -25 5 -25 30 0 30 -14 37 -47 23z"/>
<path d="M7903 541 c-33 -21 -46 -48 -45 -94 3 -92 129 -137 196 -70 95 94
-34 235 -151 164z m95 -47 c24 -17 30 -62 10 -82 -7 -7 -24 -12 -40 -12 -48 0
-66 66 -26 94 12 9 25 16 28 16 3 0 16 -7 28 -16z"/>
<path d="M8354 550 c-33 -13 -64 -59 -64 -94 0 -107 143 -154 210 -69 52 66
-2 174 -86 172 -22 0 -49 -4 -60 -9z m86 -60 c24 -24 25 -47 3 -72 -38 -43
-105 0 -84 55 9 22 22 31 54 36 4 0 16 -8 27 -19z"/>
<path d="M8874 541 c-79 -48 -59 -161 32 -191 41 -14 91 0 121 33 86 95 -41
226 -153 158z m94 -47 c24 -17 30 -62 10 -82 -7 -7 -24 -12 -38 -12 -33 0 -50
17 -50 51 0 24 30 59 50 59 3 0 16 -7 28 -16z"/>
<path d="M9145 548 c-56 -31 -74 -112 -35 -161 64 -81 210 -37 210 63 0 34
-28 78 -60 95 -34 17 -86 19 -115 3z m83 -54 c24 -17 30 -62 10 -82 -30 -30
-88 -2 -88 43 0 20 32 55 50 55 3 0 16 -7 28 -16z"/>
<path d="M9360 455 l0 -105 30 0 29 0 3 71 c3 64 6 73 25 80 37 14 53 -13 53
-87 l0 -64 30 0 30 0 0 70 c0 58 3 71 19 80 40 21 51 3 51 -76 l0 -74 36 0 37
0 -5 85 c-6 106 -22 130 -83 121 -51 -8 -72 -8 -116 0 -21 3 -46 1 -58 -5 -14
-8 -21 -8 -21 -1 0 5 -13 10 -30 10 l-30 0 0 -105z"/>
</g>
</svg>
