<svg version="1.0" xmlns="http://www.w3.org/2000/svg"
 width="96.000000pt" height="96.000000pt" viewBox="0 0 96.000000 96.000000"
 preserveAspectRatio="xMidYMid meet">

<g transform="translate(0.000000,96.000000) scale(0.100000,-0.100000)"
fill="#e31b6d" stroke="none">
<path d="M25 855 l-25 -24 0 -351 0 -351 25 -24 24 -25 431 0 431 0 24 25 25
24 0 311 0 311 -25 24 -24 25 -224 0 -223 0 -39 40 -39 40 -168 0 c-166 0
-169 0 -193 -25z m390 -55 l39 -40 221 0 c159 0 224 -3 233 -12 17 -17 17
-599 0 -616 -17 -17 -839 -17 -856 0 -17 17 -17 679 0 696 8 8 60 12 168 12
l156 0 39 -40z"/>
</g>
</svg>
