<?xml version="1.0" standalone="no"?>
<!DOCTYPE svg PUBLIC "-//W3C//DTD SVG 20010904//EN"
 "http://www.w3.org/TR/2001/REC-SVG-20010904/DTD/svg10.dtd">
<svg version="1.0" xmlns="http://www.w3.org/2000/svg"
 width="477.000000pt" height="230.000000pt" viewBox="0 0 477.000000 230.000000"
 preserveAspectRatio="xMidYMid meet">

<g transform="translate(0.000000,230.000000) scale(0.100000,-0.100000)"
fill="#DCDCDC" stroke="none">
<path d="M2277 2283 c-10 -2 -118 -62 -240 -133 -517 -297 -511 -294 -529
-330 -15 -31 -17 -80 -17 -455 0 -376 2 -424 17 -454 18 -36 27 -42 516 -323
267 -155 271 -156 327 -131 43 19 492 276 659 377 73 44 87 57 98 91 10 30 12
137 10 460 -3 377 -5 424 -20 447 -10 15 -89 67 -190 125 -95 55 -259 149
-365 210 -186 108 -228 126 -266 116z m193 -501 l55 -21 -76 6 c-135 10 -266
-47 -349 -152 -69 -87 -103 -217 -81 -308 29 -116 117 -204 229 -228 158 -32
312 73 343 234 27 147 -71 270 -216 269 -195 -2 -297 -261 -135 -345 43 -22
111 -18 149 10 66 49 78 148 21 178 -30 16 -53 12 -82 -13 -29 -25 -22 -42 17
-42 43 0 46 -20 10 -55 -48 -49 -125 -17 -125 52 0 133 171 198 259 98 62 -70
50 -177 -29 -255 -95 -96 -236 -90 -328 14 -68 77 -66 217 5 323 43 65 93 104
172 134 108 40 244 10 338 -74 145 -131 132 -397 -27 -556 -172 -172 -453
-173 -626 -3 -142 140 -175 350 -81 527 61 116 160 191 302 229 43 11 201 -2
255 -22z"/>
<path d="M510 230 l0 -120 25 0 25 0 0 120 0 120 -25 0 -25 0 0 -120z"/>
<path d="M910 195 l0 -156 42 3 c47 3 66 31 28 41 -19 5 -20 13 -20 110 0 98
1 105 21 110 13 4 20 12 17 24 -2 13 -14 19 -46 21 l-42 3 0 -156z"/>
<path d="M1357 343 c-4 -3 -7 -57 -7 -120 l0 -113 25 0 25 0 0 120 c0 110 -2
120 -18 120 -10 0 -22 -3 -25 -7z"/>
<path d="M1700 335 c-16 -19 -6 -45 18 -45 29 0 48 26 32 45 -16 19 -34 19
-50 0z"/>
<path d="M1781 337 c-17 -21 -3 -47 26 -47 21 0 24 4 21 27 -3 31 -29 41 -47
20z"/>
<path d="M1850 325 c0 -16 6 -25 15 -25 12 0 15 -19 15 -110 0 -91 -3 -110
-15 -110 -8 0 -15 -9 -15 -20 0 -17 7 -20 40 -20 l40 0 0 155 0 155 -40 0
c-36 0 -40 -2 -40 -25z"/>
<path d="M3130 311 c0 -35 -3 -41 -20 -41 -30 0 -70 -44 -70 -77 0 -15 6 -39
13 -53 11 -22 19 -25 75 -27 l63 -2 -3 117 -3 117 -27 3 c-27 3 -28 1 -28 -37z
m0 -121 c0 -29 -4 -40 -15 -40 -10 0 -15 10 -15 33 0 19 3 37 7 40 15 16 23 5
23 -33z"/>
<path d="M3927 343 c-4 -3 -7 -57 -7 -120 l0 -113 30 0 30 0 0 120 c0 119 0
120 -23 120 -13 0 -27 -3 -30 -7z"/>
<path d="M43 324 c-9 -4 -13 -36 -13 -110 l0 -104 30 0 c27 0 30 3 30 30 0 27
3 30 29 30 59 0 92 82 53 130 -13 17 -31 23 -68 26 -27 2 -55 1 -61 -2z m78
-44 c21 -12 25 -40 7 -58 -24 -24 -38 -13 -38 28 0 43 2 45 31 30z"/>
<path d="M1017 323 c-5 -8 10 -84 34 -175 9 -36 12 -38 52 -38 l42 0 23 93
c27 113 28 127 3 127 -23 0 -38 -39 -48 -117 -3 -29 -10 -53 -14 -53 -9 0 -10
4 -32 105 -11 48 -18 61 -34 63 -12 2 -23 -1 -26 -5z"/>
<path d="M2030 220 c0 -110 0 -110 24 -110 21 0 25 5 28 37 3 36 5 38 41 41
32 3 37 7 37 28 0 21 -4 24 -41 24 -33 0 -40 3 -37 18 2 12 15 18 46 20 37 3
42 6 42 28 0 23 -2 24 -70 24 l-70 0 0 -110z"/>
<path d="M2640 311 c0 -11 -7 -26 -15 -35 -17 -17 -20 -46 -5 -46 6 0 10 -18
10 -41 0 -56 14 -79 50 -79 23 0 30 5 30 19 0 10 -7 21 -15 25 -9 3 -15 19
-15 41 0 24 4 35 15 35 8 0 15 2 15 4 0 2 3 11 6 20 4 12 0 16 -15 16 -17 0
-21 6 -21 30 0 23 -4 30 -20 30 -13 0 -20 -7 -20 -19z"/>
<path d="M3288 324 c-5 -4 -8 -54 -8 -111 l0 -103 50 0 c27 0 61 5 75 12 48
22 59 139 16 182 -21 20 -119 35 -133 20z m106 -87 c11 -42 -12 -87 -44 -87
-18 0 -20 7 -20 63 0 35 3 66 6 70 15 15 50 -12 58 -46z"/>
<path d="M210 250 c0 -15 7 -20 29 -20 40 0 49 -18 14 -26 -38 -9 -53 -23 -53
-48 0 -32 14 -47 41 -46 13 0 39 0 57 0 l32 0 0 58 c0 79 -17 102 -76 102 -37
0 -44 -3 -44 -20z m65 -100 c-5 -8 -11 -8 -17 -2 -6 6 -7 16 -3 22 5 8 11 8
17 2 6 -6 7 -16 3 -22z"/>
<path d="M350 263 c0 -5 7 -41 17 -80 l17 -73 36 0 c36 0 36 0 53 64 23 86 22
98 -5 94 -18 -2 -25 -13 -34 -53 l-11 -50 -11 40 c-7 22 -12 46 -12 53 0 13
-50 18 -50 5z"/>
<path d="M614 256 c-14 -11 -19 -26 -19 -64 0 -62 16 -82 66 -82 46 0 69 27
69 80 0 66 -65 103 -116 66z m61 -45 c8 -26 -5 -73 -19 -68 -12 4 -20 51 -12
73 8 20 24 17 31 -5z"/>
<path d="M746 243 c3 -16 12 -52 20 -80 14 -51 16 -53 49 -53 36 0 35 -2 55
80 6 25 13 53 16 63 4 13 -1 17 -19 17 -21 0 -26 -8 -39 -52 -16 -57 -16 -57
-33 27 -4 19 -12 25 -30 25 -22 0 -25 -3 -19 -27z"/>
<path d="M1210 250 c0 -15 7 -20 24 -20 38 0 42 -19 6 -27 -37 -7 -60 -45 -43
-71 7 -12 26 -17 67 -19 l56 -1 0 63 c0 76 -14 95 -71 95 -32 0 -39 -3 -39
-20z m60 -90 c0 -21 -15 -27 -25 -10 -7 12 2 30 16 30 5 0 9 -9 9 -20z"/>
<path d="M1447 252 c-11 -12 -17 -36 -17 -64 0 -57 21 -78 78 -78 35 0 42 3
42 20 0 16 -7 20 -35 20 -47 0 -45 18 3 22 35 3 37 5 34 33 -2 17 -11 38 -19
48 -21 22 -65 22 -86 -1z m61 -35 c2 -10 -3 -17 -12 -17 -10 0 -16 9 -16 21 0
24 23 21 28 -4z"/>
<path d="M1580 190 c0 -79 0 -80 25 -80 23 0 25 3 25 51 0 42 3 52 20 56 13 3
20 14 20 29 0 25 -24 33 -34 12 -5 -10 -7 -10 -12 0 -3 6 -14 12 -25 12 -17 0
-19 -8 -19 -80z"/>
<path d="M1700 190 c0 -79 0 -80 25 -80 25 0 25 1 25 80 0 79 0 80 -25 80 -25
0 -25 -1 -25 -80z"/>
<path d="M1780 190 c0 -79 0 -80 25 -80 25 0 25 1 25 80 0 79 0 80 -25 80 -25
0 -25 -1 -25 -80z"/>
<path d="M2180 190 c0 -78 1 -80 24 -80 23 0 25 4 28 53 3 45 6 52 26 55 16 3
22 10 22 28 0 26 -18 31 -39 12 -11 -10 -14 -10 -18 0 -3 6 -13 12 -24 12 -17
0 -19 -8 -19 -80z"/>
<path d="M2316 254 c-19 -19 -22 -114 -4 -132 19 -19 82 -15 101 6 24 26 23
104 -1 125 -23 21 -76 22 -96 1z m62 -66 c-2 -24 -7 -43 -13 -43 -5 0 -11 19
-13 43 -3 33 0 42 13 42 13 0 16 -9 13 -42z"/>
<path d="M2460 189 c0 -78 0 -79 25 -79 24 0 25 3 25 55 0 42 3 55 15 55 12 0
15 -13 15 -55 0 -52 1 -55 25 -55 24 0 25 2 25 69 0 43 -5 72 -12 79 -7 5 -37
10 -65 10 l-53 0 0 -79z"/>
<path d="M2751 244 c-25 -32 -27 -81 -5 -112 12 -18 25 -22 65 -22 42 0 49 3
49 20 0 16 -7 20 -35 20 -19 0 -35 5 -35 10 0 6 16 10 35 10 33 0 35 2 35 33
0 65 -70 91 -109 41z m64 -24 c0 -7 -6 -15 -12 -17 -8 -3 -13 4 -13 17 0 13 5
20 13 18 6 -3 12 -11 12 -18z"/>
<path d="M2880 189 l0 -79 30 0 c30 0 30 1 30 55 0 42 3 55 15 55 12 0 15 -13
15 -55 0 -52 1 -55 25 -55 24 0 25 3 25 61 0 88 -7 97 -80 97 l-60 0 0 -79z"/>
<path d="M3504 262 c-34 -22 -44 -93 -18 -130 12 -17 25 -22 60 -22 37 0 44 3
44 20 0 16 -7 20 -30 20 -16 0 -30 5 -30 10 0 6 16 10 35 10 32 0 35 3 35 28
0 55 -55 92 -96 64z m46 -42 c0 -11 -4 -20 -10 -20 -5 0 -10 9 -10 20 0 11 5
20 10 20 6 0 10 -9 10 -20z"/>
<path d="M3613 253 c3 -10 11 -38 17 -63 21 -84 19 -81 58 -78 35 3 36 4 53
73 23 89 23 85 -6 85 -20 0 -25 -6 -30 -37 -11 -66 -17 -70 -29 -18 -10 44
-14 50 -39 53 -24 3 -28 0 -24 -15z"/>
<path d="M3790 248 c-24 -26 -27 -84 -4 -116 12 -17 25 -22 60 -22 37 0 44 3
44 20 0 15 -7 20 -29 20 -17 0 -33 5 -36 10 -4 6 10 10 34 10 38 0 41 2 41 28
0 66 -67 96 -110 50z m60 -28 c0 -19 -11 -26 -23 -14 -8 8 3 34 14 34 5 0 9
-9 9 -20z"/>
<path d="M4020 250 c-24 -24 -27 -86 -4 -118 11 -16 25 -22 54 -22 47 0 70 27
70 82 0 47 -28 78 -70 78 -17 0 -39 -9 -50 -20z m65 -65 c0 -29 -4 -40 -15
-40 -11 0 -16 13 -18 43 -3 38 -1 43 15 40 14 -2 18 -13 18 -43z"/>
<path d="M4160 154 l0 -115 28 3 c22 2 28 8 30 35 3 26 8 32 30 35 17 2 33 14
45 36 17 29 18 39 8 73 -13 42 -49 61 -75 40 -10 -8 -16 -9 -21 -1 -3 5 -15
10 -26 10 -18 0 -19 -8 -19 -116z m88 34 c2 -25 -2 -37 -12 -41 -13 -5 -16 2
-16 39 0 55 23 57 28 2z"/>
<path d="M4347 252 c-22 -24 -23 -105 -1 -126 9 -10 33 -16 60 -16 37 0 44 3
44 20 0 16 -7 20 -35 20 -19 0 -35 5 -35 10 0 6 18 10 40 10 34 0 40 3 40 21
0 23 -18 60 -34 71 -20 14 -63 8 -79 -10z m61 -35 c2 -10 -3 -17 -12 -17 -10
0 -16 9 -16 21 0 24 23 21 28 -4z"/>
<path d="M4480 190 c0 -78 1 -80 24 -80 23 0 25 4 28 53 3 45 6 52 26 55 16 3
22 10 22 28 0 26 -18 31 -39 12 -11 -10 -14 -10 -18 0 -3 6 -13 12 -24 12 -17
0 -19 -8 -19 -80z"/>
</g>
</svg>
